<mxfile host="Electron" modified="2023-09-25T08:29:06.337Z" agent="Mozilla/5.0 (Windows NT 10.0; Win64; x64) AppleWebKit/537.36 (KHTML, like Gecko) draw.io/21.7.5 Chrome/114.0.5735.289 Electron/25.8.1 Safari/537.36" etag="0PIaP3ok8o1h0x1K_MYQ" version="21.7.5" type="device">
  <diagram name="Page-1" id="3uIFbKMsco28xktlf7sZ">
    <mxGraphModel dx="1050" dy="621" grid="1" gridSize="10" guides="1" tooltips="1" connect="1" arrows="1" fold="1" page="1" pageScale="1" pageWidth="850" pageHeight="1100" background="none" math="0" shadow="0">
      <root>
        <mxCell id="0" />
        <mxCell id="1" parent="0" />
        <mxCell id="iTsQnaAJMkKByHwgml_p-5" value="&lt;font style=&quot;font-size: 24px;&quot;&gt;&lt;b style=&quot;font-size: 24px;&quot;&gt;Accelerator for Genetic Local Sequence Alignment&lt;/b&gt;&lt;/font&gt;" style="rounded=0;whiteSpace=wrap;html=1;fillColor=#ffe6cc;strokeColor=#d79b00;fontSize=24;fontFamily=Garamond;" parent="1" vertex="1">
          <mxGeometry x="261" y="60" width="320" height="200" as="geometry" />
        </mxCell>
        <mxCell id="iTsQnaAJMkKByHwgml_p-6" value="" style="endArrow=classic;html=1;rounded=0;endFill=1;strokeWidth=2;" parent="1" edge="1">
          <mxGeometry width="50" height="50" relative="1" as="geometry">
            <mxPoint x="221" y="180.16000000000003" as="sourcePoint" />
            <mxPoint x="261" y="180.16000000000003" as="targetPoint" />
          </mxGeometry>
        </mxCell>
        <mxCell id="iTsQnaAJMkKByHwgml_p-10" value="query_sequence_in[7:0]" style="edgeLabel;html=1;align=center;verticalAlign=middle;resizable=0;points=[];fontFamily=Garamond;fontSize=20;labelBackgroundColor=none;" parent="iTsQnaAJMkKByHwgml_p-6" vertex="1" connectable="0">
          <mxGeometry x="-0.56" y="2" relative="1" as="geometry">
            <mxPoint x="-109" as="offset" />
          </mxGeometry>
        </mxCell>
        <mxCell id="iTsQnaAJMkKByHwgml_p-11" value="database_sequence_in[7:0]" style="edgeLabel;html=1;align=center;verticalAlign=middle;resizable=0;points=[];fontSize=20;fontFamily=Garamond;labelBackgroundColor=none;" parent="iTsQnaAJMkKByHwgml_p-6" vertex="1" connectable="0">
          <mxGeometry x="-0.56" y="2" relative="1" as="geometry">
            <mxPoint x="-120" y="40" as="offset" />
          </mxGeometry>
        </mxCell>
        <mxCell id="iTsQnaAJMkKByHwgml_p-12" value="clk" style="edgeLabel;html=1;align=center;verticalAlign=middle;resizable=0;points=[];fontSize=20;fontFamily=Garamond;labelBackgroundColor=none;" parent="iTsQnaAJMkKByHwgml_p-6" vertex="1" connectable="0">
          <mxGeometry x="-0.56" y="2" relative="1" as="geometry">
            <mxPoint x="71" y="132" as="offset" />
          </mxGeometry>
        </mxCell>
        <mxCell id="iTsQnaAJMkKByHwgml_p-13" value="resetN" style="edgeLabel;html=1;align=center;verticalAlign=middle;resizable=0;points=[];fontSize=20;fontFamily=Garamond;labelBackgroundColor=none;" parent="iTsQnaAJMkKByHwgml_p-6" vertex="1" connectable="0">
          <mxGeometry x="-0.56" y="2" relative="1" as="geometry">
            <mxPoint x="121" y="132" as="offset" />
          </mxGeometry>
        </mxCell>
        <mxCell id="iTsQnaAJMkKByHwgml_p-17" value="output_valid" style="edgeLabel;html=1;align=center;verticalAlign=middle;resizable=0;points=[];fontSize=20;fontFamily=Garamond;labelBackgroundColor=none;" parent="iTsQnaAJMkKByHwgml_p-6" vertex="1" connectable="0">
          <mxGeometry x="-0.56" y="2" relative="1" as="geometry">
            <mxPoint x="445" y="-80" as="offset" />
          </mxGeometry>
        </mxCell>
        <mxCell id="iTsQnaAJMkKByHwgml_p-18" value="query_sequence_out[2:0]" style="edgeLabel;html=1;align=center;verticalAlign=middle;resizable=0;points=[];fontFamily=Garamond;fontSize=20;labelBackgroundColor=none;" parent="iTsQnaAJMkKByHwgml_p-6" vertex="1" connectable="0">
          <mxGeometry x="-0.56" y="2" relative="1" as="geometry">
            <mxPoint x="493" y="-40" as="offset" />
          </mxGeometry>
        </mxCell>
        <mxCell id="iTsQnaAJMkKByHwgml_p-19" value="database_sequence_out[2:0]" style="edgeLabel;html=1;align=center;verticalAlign=middle;resizable=0;points=[];fontSize=20;fontFamily=Garamond;labelBackgroundColor=none;" parent="iTsQnaAJMkKByHwgml_p-6" vertex="1" connectable="0">
          <mxGeometry x="-0.56" y="2" relative="1" as="geometry">
            <mxPoint x="505" as="offset" />
          </mxGeometry>
        </mxCell>
        <mxCell id="iTsQnaAJMkKByHwgml_p-21" value="score[6:0]" style="edgeLabel;html=1;align=center;verticalAlign=middle;resizable=0;points=[];fontSize=20;fontFamily=Garamond;labelBackgroundColor=none;" parent="iTsQnaAJMkKByHwgml_p-6" vertex="1" connectable="0">
          <mxGeometry x="-0.56" y="2" relative="1" as="geometry">
            <mxPoint x="434" y="40" as="offset" />
          </mxGeometry>
        </mxCell>
        <mxCell id="iTsQnaAJMkKByHwgml_p-7" value="" style="endArrow=classic;html=1;rounded=0;endFill=1;strokeWidth=2;" parent="1" edge="1">
          <mxGeometry width="50" height="50" relative="1" as="geometry">
            <mxPoint x="221" y="220.16000000000003" as="sourcePoint" />
            <mxPoint x="261" y="220.16000000000003" as="targetPoint" />
          </mxGeometry>
        </mxCell>
        <mxCell id="iTsQnaAJMkKByHwgml_p-8" value="" style="endArrow=classic;html=1;rounded=0;endFill=1;strokeWidth=2;entryX=0.125;entryY=0.999;entryDx=0;entryDy=0;entryPerimeter=0;" parent="1" edge="1" target="iTsQnaAJMkKByHwgml_p-5">
          <mxGeometry width="50" height="50" relative="1" as="geometry">
            <mxPoint x="301.08" y="300" as="sourcePoint" />
            <mxPoint x="300.99999999999994" y="262.4" as="targetPoint" />
          </mxGeometry>
        </mxCell>
        <mxCell id="iTsQnaAJMkKByHwgml_p-9" value="" style="endArrow=classic;html=1;rounded=0;endFill=1;strokeWidth=2;entryX=0.25;entryY=1;entryDx=0;entryDy=0;" parent="1" edge="1">
          <mxGeometry width="50" height="50" relative="1" as="geometry">
            <mxPoint x="351" y="300" as="sourcePoint" />
            <mxPoint x="351" y="260" as="targetPoint" />
          </mxGeometry>
        </mxCell>
        <mxCell id="iTsQnaAJMkKByHwgml_p-14" value="" style="endArrow=classic;html=1;rounded=0;endFill=1;strokeWidth=2;" parent="1" edge="1">
          <mxGeometry width="50" height="50" relative="1" as="geometry">
            <mxPoint x="581" y="101" as="sourcePoint" />
            <mxPoint x="621" y="101" as="targetPoint" />
          </mxGeometry>
        </mxCell>
        <mxCell id="iTsQnaAJMkKByHwgml_p-15" value="" style="endArrow=classic;html=1;rounded=0;endFill=1;strokeWidth=2;" parent="1" edge="1">
          <mxGeometry width="50" height="50" relative="1" as="geometry">
            <mxPoint x="581" y="141" as="sourcePoint" />
            <mxPoint x="621" y="141" as="targetPoint" />
          </mxGeometry>
        </mxCell>
        <mxCell id="iTsQnaAJMkKByHwgml_p-16" value="" style="endArrow=classic;html=1;rounded=0;endFill=1;strokeWidth=2;" parent="1" edge="1">
          <mxGeometry width="50" height="50" relative="1" as="geometry">
            <mxPoint x="581" y="181" as="sourcePoint" />
            <mxPoint x="621" y="181" as="targetPoint" />
          </mxGeometry>
        </mxCell>
        <mxCell id="iTsQnaAJMkKByHwgml_p-20" value="" style="endArrow=classic;html=1;rounded=0;endFill=1;strokeWidth=2;" parent="1" edge="1">
          <mxGeometry width="50" height="50" relative="1" as="geometry">
            <mxPoint x="581" y="221" as="sourcePoint" />
            <mxPoint x="621" y="221" as="targetPoint" />
          </mxGeometry>
        </mxCell>
        <mxCell id="VRhgiDbv6dK6xyt3hBLd-11" value="" style="endArrow=classic;html=1;rounded=0;endFill=1;strokeWidth=2;" parent="1" edge="1">
          <mxGeometry width="50" height="50" relative="1" as="geometry">
            <mxPoint x="221" y="140" as="sourcePoint" />
            <mxPoint x="261" y="140" as="targetPoint" />
          </mxGeometry>
        </mxCell>
        <mxCell id="VRhgiDbv6dK6xyt3hBLd-12" value="start" style="edgeLabel;html=1;align=center;verticalAlign=middle;resizable=0;points=[];labelBackgroundColor=none;fontSize=20;fontFamily=Garamond;" parent="VRhgiDbv6dK6xyt3hBLd-11" vertex="1" connectable="0">
          <mxGeometry x="-0.4345" y="1" relative="1" as="geometry">
            <mxPoint x="-39" as="offset" />
          </mxGeometry>
        </mxCell>
        <mxCell id="VRhgiDbv6dK6xyt3hBLd-13" value="" style="endArrow=classic;html=1;rounded=0;endFill=1;strokeWidth=2;" parent="1" edge="1">
          <mxGeometry width="50" height="50" relative="1" as="geometry">
            <mxPoint x="261" y="103.00000000000003" as="sourcePoint" />
            <mxPoint x="221" y="103.00000000000003" as="targetPoint" />
          </mxGeometry>
        </mxCell>
        <mxCell id="VRhgiDbv6dK6xyt3hBLd-14" value="ready" style="edgeLabel;html=1;align=center;verticalAlign=middle;resizable=0;points=[];labelBackgroundColor=none;fontSize=20;fontFamily=Garamond;" parent="VRhgiDbv6dK6xyt3hBLd-13" vertex="1" connectable="0">
          <mxGeometry x="-0.4345" y="1" relative="1" as="geometry">
            <mxPoint x="-59" y="-4" as="offset" />
          </mxGeometry>
        </mxCell>
      </root>
    </mxGraphModel>
  </diagram>
</mxfile>
